<svg width="41" height="32" viewBox="0 0 41 32" fill="none" xmlns="http://www.w3.org/2000/svg">
<path d="M32.5 12.0625C36.9375 12.0625 40.5625 15.75 40.4375 20.125C40.375 24.5625 36.8125 28.0625 32.375 28C28.0625 28 24.5 24.375 24.5 20.0625C24.4375 17.6875 25.4375 15.625 27.0625 14.125L26.125 12.625L20.75 21.3125C20.5 21.75 20 22 19.5 22H16.1875C15.3125 25.5 12.1875 28 8.5 28C4.0625 28 0.4375 24.4375 0.5 20C0.5 15.625 4.125 12 8.5 12C9.4375 12.0625 10.3125 12.1875 11.1875 12.5L13 9.5H10C9.125 9.5 8.5 8.875 8.5 8.0625C8.4375 7.1875 9.1875 6.5 10 6.5H15.5C16 6.5 16.5 7 16.5 7.5V8.5H23.5625L22.625 7H19.5C18.9375 7 18.5 6.5625 18.5 6V5C18.5 4.5 18.9375 4 19.5 4H23.5C24 4 24.5 4.3125 24.75 4.75L29.625 12.5625C30.5 12.1875 31.5 12 32.5 12.0625ZM12.125 16.625L10.6875 19H13.375C13.1875 18.125 12.75 17.3125 12.125 16.625ZM8.5 25C10.5 25 12.25 23.8125 13.0625 22H8C6.8125 22 6.0625 20.75 6.6875 19.75L9.5625 15.125C9.1875 15.0625 8.8125 15 8.5 15C5.6875 15 3.5 17.25 3.5 20C3.5 22.8125 5.6875 25 8.5 25ZM18.625 19L23.25 11.5H15.3125L13.75 14C15.1875 15.3125 16.1875 17.0625 16.4375 19H18.625ZM32.1875 25C35.0625 25.1875 37.5 22.875 37.5 20.0625C37.5 17.25 35.25 15.0625 32.5 15.0625C32.4375 15.0625 32.5 15.0625 32.4375 15.0625C32.0625 15.0625 31.625 15.0625 31.25 15.1875L34 19.6875C34.3125 20.125 34.125 20.75 33.6875 21.0625L32.8125 21.5625C32.375 21.875 31.75 21.6875 31.4375 21.25L28.6875 16.75C27.875 17.6875 27.4375 18.9375 27.5 20.25C27.5625 22.8125 29.625 24.875 32.1875 25Z" fill="#D6DEE8"/>
</svg>
