<svg width="38" height="35" viewBox="0 0 38 35" fill="none" xmlns="http://www.w3.org/2000/svg">
<g clip-path="url(#clip0_3_211)">
<g clip-path="url(#clip1_3_211)">
<g clip-path="url(#clip2_3_211)">
<path d="M2.28001 34.1399H36.68C37.41 34.1399 37.98 33.5699 37.98 32.8399V3.83989C37.98 3.11989 37.41 2.53989 36.68 2.53989H30.18V1.43989C30.18 0.709893 29.61 0.139893 28.88 0.139893C28.14 0.139893 27.58 0.709893 27.58 1.43989V2.53989H11.58V1.43989C11.58 0.709893 11 0.139893 10.28 0.139893C9.54001 0.139893 8.98001 0.709893 8.98001 1.43989V2.53989H2.28001C1.56001 2.53989 0.980011 3.13989 0.980011 3.83989V32.8699C0.980011 33.5699 1.58001 34.1399 2.28001 34.1399ZM3.58001 5.13989H8.98001V5.83989C8.98001 6.56989 9.55001 7.13989 10.28 7.13989C11.02 7.13989 11.58 6.56989 11.58 5.83989V5.13989H27.58V5.83989C27.58 6.56989 28.16 7.13989 28.9 7.13989C29.63 7.13989 30.2 6.56989 30.2 5.83989V5.13989H35.4V12.0399H3.60001V5.13989H3.58001ZM3.58001 14.6399H35.38V31.5699H3.58001V14.6399ZM19.5 24.4099H10.1C9.36001 24.4099 8.80001 24.9799 8.80001 25.7099C8.80001 26.4399 9.36001 27.0099 10.1 27.0099H19.5C20.23 27.0099 20.8 26.4399 20.8 25.7099C20.8 24.9799 20.23 24.4099 19.5 24.4099ZM28.9 19.1399H10.1C9.36001 19.1399 8.80001 19.7099 8.80001 20.4399C8.80001 21.1699 9.36001 21.7399 10.1 21.7399H28.9C29.63 21.7399 30.2 21.1699 30.2 20.4399C30.2 19.7099 29.63 19.1399 28.9 19.1399Z" fill="#D6DEE8"/>
</g>
</g>
</g>
<defs>
<clipPath id="clip0_3_211">
<rect width="37" height="34" fill="white" transform="translate(0.980011 0.139893)"/>
</clipPath>
<clipPath id="clip1_3_211">
<rect width="37" height="34" fill="white" transform="translate(0.980011 0.139893)"/>
</clipPath>
<clipPath id="clip2_3_211">
<rect width="37" height="34" fill="white" transform="translate(0.980011 0.139893)"/>
</clipPath>
</defs>
</svg>
