<svg width="38" height="37" viewBox="0 0 38 37" fill="none" xmlns="http://www.w3.org/2000/svg">
<g clip-path="url(#clip0_3_167)">
<g clip-path="url(#clip1_3_167)">
<path d="M35.07 19.6599C35.07 10.7099 27.87 3.40991 19 3.40991C10.14 3.40991 2.93 10.7099 2.93 19.6599C2.93 24.4999 5.03 28.8599 8.35 31.8299L6.3 35.2699C5.98 35.7699 6.14 36.4399 6.64 36.7499C6.82 36.8499 7.01 36.9099 7.2 36.9099C7.56 36.9099 7.9 36.7299 8.1 36.3899L10.05 33.1599C12.6 34.9099 15.7 35.9099 19 35.9099C22.3 35.9099 25.4 34.9099 27.95 33.1599L29.89 36.3899C30.09 36.7299 30.43 36.9099 30.79 36.9099C30.99 36.9099 31.17 36.8599 31.35 36.7499C31.85 36.4499 32.01 35.7799 31.7 35.2699L29.65 31.8299C32.97 28.8499 35.07 24.4999 35.07 19.6599ZM19 33.7599C11.3 33.7599 5.06 27.4399 5.06 19.6599C5.06 11.8899 11.31 5.55991 19 5.55991C26.7 5.55991 32.94 11.8899 32.94 19.6599C32.94 27.4399 26.69 33.7599 19 33.7599ZM26.02 20.7099L21.96 19.3699C21.81 17.8499 20.54 16.6699 19 16.6699C18.83 16.6699 18.67 16.6699 18.5 16.6999L15.08 11.7299C14.74 11.2299 14.08 11.1299 13.58 11.4699C13.11 11.8099 12.98 12.4699 13.33 12.9699L16.67 17.7899C16.27 18.2899 16.03 18.9399 16.03 19.6399C16.03 21.2999 17.36 22.6399 19 22.6399C19.98 22.6399 20.84 22.1699 21.4 21.4399L25.36 22.7399C25.46 22.7799 25.58 22.7999 25.69 22.7999C26.13 22.7999 26.55 22.5199 26.69 22.0599C26.89 21.4999 26.57 20.8899 26.01 20.6999L26.02 20.7099ZM19 20.5099C18.54 20.5099 18.16 20.1299 18.16 19.6599C18.16 19.1999 18.54 18.8199 19 18.8199C19.46 18.8199 19.84 19.2199 19.84 19.6699C19.84 20.1399 19.46 20.5199 19 20.5199V20.5099ZM10.6 4.27991C10.8 4.07991 10.92 3.79991 10.92 3.51991C10.92 3.23991 10.82 2.95991 10.62 2.75991C9.43 1.54991 7.87 0.909912 6.2 0.909912C4.54 0.909912 2.98 1.55991 1.8 2.74991C-0.629999 5.19991 -0.629999 9.18991 1.8 11.6499C2 11.8499 2.28 11.9499 2.55 11.9499C2.83 11.9499 3.1 11.8499 3.31 11.6499L10.59 4.27991H10.6ZM3.33 4.27991C4.1 3.49991 5.13 3.07991 6.21 3.07991C6.95 3.07991 7.65 3.25991 8.26 3.61991L2.67 9.26991C1.77 7.68991 2 5.62991 3.33 4.28991V4.27991ZM36.18 2.74991C35 1.54991 33.45 0.909912 31.78 0.909912C30.12 0.909912 28.56 1.55991 27.38 2.74991C27.18 2.94991 27.08 3.22991 27.08 3.51991C27.08 3.81991 27.18 4.08991 27.38 4.28991L34.68 11.6599C34.88 11.8599 35.15 11.9599 35.43 11.9599C35.7 11.9599 35.97 11.8599 36.18 11.6599C38.61 9.19991 38.61 5.20991 36.18 2.75991V2.74991ZM35.33 9.24991L29.75 3.61991C30.35 3.26991 31.05 3.07991 31.79 3.07991C32.87 3.07991 33.89 3.50991 34.66 4.27991C35.99 5.62991 36.21 7.67991 35.32 9.27991L35.33 9.24991Z" fill="#D6DEE8"/>
</g>
</g>
<defs>
<clipPath id="clip0_3_167">
<rect width="38" height="36" fill="white" transform="translate(0 0.909912)"/>
</clipPath>
<clipPath id="clip1_3_167">
<rect width="38" height="36" fill="white" transform="translate(0 0.909912)"/>
</clipPath>
</defs>
</svg>
