<svg width="33" height="33" viewBox="0 0 33 33" fill="none" xmlns="http://www.w3.org/2000/svg">
<path d="M9.97998 13.0901C11.0425 13.0901 11.98 14.0276 11.98 15.0901C11.98 16.2151 11.0425 17.0901 9.97998 17.0901C8.85498 17.0901 7.97998 16.2151 7.97998 15.0901C7.97998 14.0276 8.85498 13.0901 9.97998 13.0901ZM16.98 13.0901C18.0425 13.0901 18.98 14.0276 18.98 15.0901C18.98 16.2151 18.0425 17.0901 16.98 17.0901C15.855 17.0901 14.98 16.2151 14.98 15.0901C14.98 14.0276 15.855 13.0901 16.98 13.0901ZM23.98 13.0901C25.0425 13.0901 25.98 14.0276 25.98 15.0901C25.98 16.2151 25.0425 17.0901 23.98 17.0901C22.855 17.0901 21.98 16.2151 21.98 15.0901C21.98 14.0276 22.855 13.0901 23.98 13.0901ZM16.98 2.09009C25.7925 2.09009 32.98 7.96509 32.98 15.0901C32.98 22.2776 25.7925 28.0901 16.98 28.0901C14.9175 28.0901 12.98 27.7776 11.1675 27.2151C9.35498 28.5276 6.29248 30.0901 2.47998 30.0901C1.85498 30.0901 1.29248 29.7776 1.04248 29.2151C0.85498 28.6526 0.91748 28.0276 1.35498 27.5901C1.41748 27.5901 3.35498 25.4651 4.22998 23.0276C2.16748 20.8401 0.97998 18.0901 0.97998 15.0901C0.97998 7.96509 8.10498 2.09009 16.98 2.09009ZM16.98 25.0901C24.105 25.0901 29.98 20.6526 29.98 15.0901C29.98 9.59009 24.105 5.09009 16.98 5.09009C9.79248 5.09009 3.97998 9.59009 3.97998 15.0901C3.97998 17.7776 5.29248 19.7776 6.41748 20.9651L7.72998 22.3401L7.04248 24.0901C6.72998 24.9651 6.29248 25.8401 5.79248 26.5901C7.29248 26.0901 8.54248 25.4026 9.41748 24.7776L10.605 23.9026L12.0425 24.3401C13.605 24.8401 15.2925 25.0901 16.98 25.0901Z" fill="#D6DEE8"/>
</svg>
