<svg width="19" height="19" viewBox="0 0 19 19" fill="none" xmlns="http://www.w3.org/2000/svg">
<path d="M18.7031 9.63477C18.7031 14.7188 14.5469 18.8379 9.5 18.8379C4.41602 18.8379 0.296875 14.7188 0.296875 9.63477C0.296875 4.58789 4.41602 0.431641 9.5 0.431641C14.5469 0.431641 18.7031 4.58789 18.7031 9.63477ZM8.42383 14.5332L15.252 7.70508C15.4746 7.48242 15.4746 7.07422 15.252 6.85156L14.3984 6.03516C14.1758 5.77539 13.8047 5.77539 13.582 6.03516L8.01562 11.6016L5.38086 9.00391C5.1582 8.74414 4.78711 8.74414 4.56445 9.00391L3.71094 9.82031C3.48828 10.043 3.48828 10.4512 3.71094 10.6738L7.57031 14.5332C7.79297 14.7559 8.20117 14.7559 8.42383 14.5332Z" fill="#1BCB42"/>
</svg>
