<svg width="37" height="37" viewBox="0 0 37 37" fill="none" xmlns="http://www.w3.org/2000/svg">
<g clip-path="url(#clip0_3_183)">
<g clip-path="url(#clip1_3_183)">
<path d="M33.25 7.93989C30.32 4.13989 26.08 1.68989 21.31 1.05989C16.59 0.459888 11.91 1.68989 8.11002 4.55989L6.76002 3.17989C6.36002 2.77989 6.01002 2.91989 5.96002 3.47989L5.51002 8.37989C5.46002 8.93989 5.87002 9.34989 6.41002 9.29989L11.34 8.84989C11.89 8.79989 12.02 8.42989 11.64 8.04989L10.18 6.60989C13.3 4.36989 17.08 3.40989 20.92 3.90989C24.92 4.43989 28.48 6.48989 30.92 9.68989C33.39 12.8899 34.46 16.8499 33.92 20.8499C33.56 23.6899 32.42 26.3099 30.64 28.4699C29.92 29.3499 29.09 30.1499 28.16 30.8699C24.96 33.3199 21 34.3899 17 33.8699C13 33.3399 9.44002 31.2899 6.98002 28.0899C4.58002 24.9899 3.51002 21.1099 3.95002 17.2099C4.03002 16.4099 3.45002 15.7099 2.65002 15.6099C1.91002 15.5299 1.18002 16.1099 1.08002 16.9099C0.580017 21.5599 1.86002 26.1599 4.71002 29.8799C7.64002 33.6799 11.88 36.1299 16.64 36.7599C21.41 37.3799 26.14 36.1099 29.94 33.1799C31.04 32.3299 32.04 31.3799 32.9 30.3199C35.02 27.7599 36.38 24.6399 36.82 21.2599C37.45 16.4899 36.18 11.7599 33.25 7.95989V7.93989ZM18.28 7.20989C17.63 7.20989 17.1 7.70989 17.1 8.36989V20.0399L27.78 25.5599C27.95 25.6599 28.14 25.6899 28.32 25.6899C28.74 25.6899 29.15 25.4599 29.36 25.0599C29.66 24.4799 29.43 23.7799 28.86 23.4799L19.46 18.6099V8.36989C19.46 7.71989 18.92 7.19989 18.26 7.19989L18.28 7.20989Z" fill="#D6DEE8"/>
</g>
</g>
<defs>
<clipPath id="clip0_3_183">
<rect width="36" height="36" fill="white" transform="translate(0.980011 0.909912)"/>
</clipPath>
<clipPath id="clip1_3_183">
<rect width="36" height="36" fill="white" transform="translate(0.980011 0.909912)"/>
</clipPath>
</defs>
</svg>
