<svg width="15" height="14" viewBox="0 0 15 14" fill="none" xmlns="http://www.w3.org/2000/svg">
<path d="M7.98486 3.60547C9.70752 3.60547 11.1294 5.02734 11.1294 6.75C11.1294 8.5 9.70752 9.89453 7.98486 9.89453C6.23486 9.89453 4.84033 8.5 4.84033 6.75C4.84033 5.02734 6.23486 3.60547 7.98486 3.60547ZM7.98486 8.80078C9.10596 8.80078 10.0083 7.89844 10.0083 6.75C10.0083 5.62891 9.10596 4.72656 7.98486 4.72656C6.83643 4.72656 5.93408 5.62891 5.93408 6.75C5.93408 7.89844 6.86377 8.80078 7.98486 8.80078ZM11.9771 3.49609C11.9771 3.90625 11.6489 4.23438 11.2388 4.23438C10.8286 4.23438 10.5005 3.90625 10.5005 3.49609C10.5005 3.08594 10.8286 2.75781 11.2388 2.75781C11.6489 2.75781 11.9771 3.08594 11.9771 3.49609ZM14.0552 4.23438C14.1099 5.24609 14.1099 8.28125 14.0552 9.29297C14.0005 10.2773 13.7817 11.125 13.0708 11.8633C12.3599 12.5742 11.4849 12.793 10.5005 12.8477C9.48877 12.9023 6.45361 12.9023 5.44189 12.8477C4.45752 12.793 3.60986 12.5742 2.87158 11.8633C2.16064 11.125 1.94189 10.2773 1.88721 9.29297C1.83252 8.28125 1.83252 5.24609 1.88721 4.23438C1.94189 3.25 2.16064 2.375 2.87158 1.66406C3.60986 0.953125 4.45752 0.734375 5.44189 0.679688C6.45361 0.625 9.48877 0.625 10.5005 0.679688C11.4849 0.734375 12.3599 0.953125 13.0708 1.66406C13.7817 2.375 14.0005 3.25 14.0552 4.23438ZM12.7427 10.3594C13.0708 9.56641 12.9888 7.65234 12.9888 6.75C12.9888 5.875 13.0708 3.96094 12.7427 3.14062C12.5239 2.62109 12.1138 2.18359 11.5942 1.99219C10.7739 1.66406 8.85986 1.74609 7.98486 1.74609C7.08252 1.74609 5.16846 1.66406 4.37549 1.99219C3.82861 2.21094 3.41846 2.62109 3.19971 3.14062C2.87158 3.96094 2.95361 5.875 2.95361 6.75C2.95361 7.65234 2.87158 9.56641 3.19971 10.3594C3.41846 10.9062 3.82861 11.3164 4.37549 11.5352C5.16846 11.8633 7.08252 11.7812 7.98486 11.7812C8.85986 11.7812 10.7739 11.8633 11.5942 11.5352C12.1138 11.3164 12.5513 10.9062 12.7427 10.3594Z" fill="#B2B2B9"/>
</svg>
