<svg width="21" height="21" viewBox="0 0 21 21" fill="none" xmlns="http://www.w3.org/2000/svg">
<path d="M19.6478 1.47656C20.0775 1.59375 20.39 1.94531 20.39 2.375C20.39 12.4141 12.265 20.5 2.26501 20.5C1.79626 20.5 1.4447 20.2266 1.32751 19.7969L0.390015 15.7344C0.31189 15.3047 0.507202 14.8359 0.93689 14.6406L5.31189 12.7656C5.70251 12.6094 6.1322 12.7266 6.40564 13.0391L8.35876 15.4219C11.4056 13.9766 13.8666 11.4766 15.2728 8.50781L12.89 6.55469C12.5775 6.28125 12.4603 5.85156 12.6166 5.46094L14.4916 1.08594C14.6869 0.65625 15.1556 0.421875 15.5853 0.539062L19.6478 1.47656Z" fill="#B2B2B9"/>
</svg>
