<svg width="101" height="101" viewBox="0 0 101 101" fill="none" xmlns="http://www.w3.org/2000/svg">
<rect x="0.983398" y="0.390015" width="100" height="100" rx="50" fill="#FF285B"/>
<path d="M74.1279 28.0814C75.2021 28.3744 75.9834 29.2533 75.9834 30.3275C75.9834 55.4252 55.6709 75.64 30.6709 75.64C29.499 75.64 28.6201 74.9564 28.3271 73.8822L25.9834 63.726C25.7881 62.6517 26.2764 61.4799 27.3506 60.9916L38.2881 56.3041C39.2646 55.9135 40.3389 56.2064 41.0225 56.9877L45.9053 62.9447C53.5225 59.3314 59.6748 53.0814 63.1904 45.6595L57.2334 40.7767C56.4521 40.0931 56.1592 39.0189 56.5498 38.0424L61.2373 27.1049C61.7256 26.0306 62.8975 25.4447 63.9717 25.7377L74.1279 28.0814Z" fill="white"/>
</svg>
