<svg width="101" height="101" viewBox="0 0 101 101" fill="none" xmlns="http://www.w3.org/2000/svg">
<rect x="0.966797" y="0.390015" width="100" height="100" rx="50" fill="#FF285B"/>
<path d="M71.2793 31.89C73.8184 31.89 75.9668 34.0385 75.9668 36.5775V64.7025C75.9668 67.3392 73.8184 69.39 71.2793 69.39H30.6543C28.0176 69.39 25.9668 67.3392 25.9668 64.7025V36.5775C25.9668 34.0385 28.0176 31.89 30.6543 31.89H71.2793ZM71.2793 36.5775H30.6543V40.5814C32.8027 42.4369 36.3184 45.1713 43.7402 51.0306C45.4004 52.3002 48.623 55.4252 50.9668 55.3275C53.2129 55.4252 56.4355 52.3002 58.0957 51.0306C65.5176 45.1713 69.0332 42.4369 71.2793 40.5814V36.5775ZM30.6543 64.7025H71.2793V46.6361C69.0332 48.3939 65.8105 50.933 61.0254 54.7416C58.7793 56.4017 55.0684 60.1127 50.9668 60.015C46.7676 60.1127 42.959 56.4017 40.8105 54.7416C36.0254 50.933 32.8027 48.3939 30.6543 46.6361V64.7025Z" fill="white"/>
</svg>
