<svg width="100" height="101" viewBox="0 0 100 101" fill="none" xmlns="http://www.w3.org/2000/svg">
<rect y="0.390015" width="100" height="100" rx="50" fill="#FF285B"/>
<path d="M48.0469 74.6635C33.7891 54.1556 31.25 52.0072 31.25 44.39C31.25 34.0385 39.5508 25.64 50 25.64C60.3516 25.64 68.75 34.0385 68.75 44.39C68.75 52.0072 66.1133 54.1556 51.8555 74.6635C50.9766 76.0306 48.9258 76.0306 48.0469 74.6635ZM50 52.2025C54.2969 52.2025 57.8125 48.7845 57.8125 44.39C57.8125 40.0931 54.2969 36.5775 50 36.5775C45.6055 36.5775 42.1875 40.0931 42.1875 44.39C42.1875 48.7845 45.6055 52.2025 50 52.2025Z" fill="white"/>
</svg>
