<svg width="32" height="32" viewBox="0 0 32 32" fill="none" xmlns="http://www.w3.org/2000/svg">
<path d="M9 14C5.125 14 2 10.875 2 7C2 3.1875 5.125 0 9 0C12.8125 0 16 3.1875 16 7C16 10.875 12.8125 14 9 14ZM9 4C7.3125 4 6 5.375 6 7C6 8.6875 7.3125 10 9 10C10.625 10 12 8.6875 12 7C12 5.375 10.625 4 9 4ZM23 18C26.8125 18 30 21.1875 30 25C30 28.875 26.8125 32 23 32C19.125 32 16 28.875 16 25C16 21.1875 19.125 18 23 18ZM23 28C24.625 28 26 26.6875 26 25C26 23.375 24.625 22 23 22C21.3125 22 20 23.375 20 25C20 26.6875 21.3125 28 23 28ZM26.5 0.0625H28.4375C29.6875 0 30.375 1.375 29.6875 2.375L6.8125 31.375C6.5625 31.75 6.0625 32 5.5625 32H3.5C2.25 32 1.5625 30.625 2.25 29.6875L25.25 0.6875C25.5625 0.25 26 0.0625 26.5 0.0625Z" fill="#D6DEE8"/>
</svg>
