<svg width="26" height="37" viewBox="0 0 26 37" fill="none" xmlns="http://www.w3.org/2000/svg">
<g clip-path="url(#clip0_3_198)">
<g clip-path="url(#clip1_3_198)">
<g clip-path="url(#clip2_3_198)">
<path d="M24.82 33.6699H22.82V29.8699C22.82 26.0399 20.8 22.5099 17.16 19.9399C16.71 19.6199 16.42 18.9399 16.42 18.1399C16.42 17.3399 16.72 16.6599 17.16 16.3399C20.8 13.7699 22.81 10.2399 22.81 6.39989V2.59989H24.83C25.48 2.59989 26.01 2.05989 26.01 1.37989C26 0.679893 25.47 0.139893 24.82 0.139893H1.18C0.529998 0.139893 -2.13645e-06 0.689893 -2.13645e-06 1.37989C-2.13645e-06 2.05989 0.529998 2.60989 1.18 2.60989H3.18V6.40989C3.18 10.2399 5.2 13.7699 8.84 16.3399C9.29 16.6599 9.58 17.3399 9.58 18.1399C9.58 18.9399 9.28 19.6199 8.84 19.9399C5.2 22.5099 3.2 26.0399 3.2 29.8799V33.6799H1.17C0.519998 33.6799 -0.0100021 34.2199 -0.0100021 34.8999C-2.13645e-06 35.5999 0.529998 36.1399 1.18 36.1399H24.82C25.47 36.1399 26 35.5899 26 34.8999C26 34.2199 25.47 33.6699 24.82 33.6699ZM5.54 29.8699C5.54 25.8399 8.44 23.1999 10.14 21.9899C11.26 21.2099 11.94 19.7699 11.94 18.1399C11.94 16.5099 11.26 15.0699 10.14 14.2899C8.44 13.0899 5.54 10.4399 5.54 6.38989V2.61989H20.46V6.41989C20.46 10.4499 17.56 13.0899 15.86 14.2999C14.74 15.0799 14.06 16.5199 14.06 18.1499C14.06 19.7799 14.74 21.2199 15.86 21.9999C17.56 23.1999 20.46 25.8499 20.46 29.8999V33.6799H5.54V29.8799V29.8699Z" fill="#D6DEE8"/>
</g>
</g>
</g>
<defs>
<clipPath id="clip0_3_198">
<rect width="26" height="36" fill="white" transform="translate(0 0.139893)"/>
</clipPath>
<clipPath id="clip1_3_198">
<rect width="26" height="36" fill="white" transform="translate(0 0.139893)"/>
</clipPath>
<clipPath id="clip2_3_198">
<rect width="26" height="36" fill="white" transform="translate(0 0.139893)"/>
</clipPath>
</defs>
</svg>
