<svg width="15" height="14" viewBox="0 0 15 14" fill="none" xmlns="http://www.w3.org/2000/svg">
<path d="M13.5308 3.90625C13.5308 4.04297 13.5308 4.15234 13.5308 4.28906C13.5308 8.08984 10.6597 12.4375 5.38232 12.4375C3.7417 12.4375 2.23779 11.9727 0.97998 11.1523C1.19873 11.1797 1.41748 11.207 1.66357 11.207C3.00342 11.207 4.23389 10.7422 5.21826 9.97656C3.96045 9.94922 2.89404 9.12891 2.53857 7.98047C2.72998 8.00781 2.89404 8.03516 3.08545 8.03516C3.33154 8.03516 3.60498 7.98047 3.82373 7.92578C2.51123 7.65234 1.52686 6.50391 1.52686 5.10938V5.08203C1.90967 5.30078 2.37451 5.41016 2.83936 5.4375C2.04639 4.91797 1.5542 4.04297 1.5542 3.05859C1.5542 2.51172 1.69092 2.01953 1.93701 1.60938C3.35889 3.33203 5.4917 4.48047 7.87061 4.61719C7.81592 4.39844 7.78857 4.17969 7.78857 3.96094C7.78857 2.375 9.07373 1.08984 10.6597 1.08984C11.48 1.08984 12.2183 1.41797 12.7651 1.99219C13.394 1.85547 14.0229 1.60938 14.5698 1.28125C14.3511 1.96484 13.9136 2.51172 13.312 2.86719C13.8862 2.8125 14.4604 2.64844 14.9526 2.42969C14.5698 3.00391 14.0776 3.49609 13.5308 3.90625Z" fill="#B2B2B9"/>
</svg>
