<svg width="16" height="14" viewBox="0 0 16 14" fill="none" xmlns="http://www.w3.org/2000/svg">
<path d="M15.1216 3.16797C15.4497 4.31641 15.4497 6.77734 15.4497 6.77734C15.4497 6.77734 15.4497 9.21094 15.1216 10.3867C14.9575 11.043 14.438 11.5352 13.8091 11.6992C12.6333 12 7.98486 12 7.98486 12C7.98486 12 3.30908 12 2.1333 11.6992C1.50439 11.5352 0.984863 11.043 0.820801 10.3867C0.492676 9.21094 0.492676 6.77734 0.492676 6.77734C0.492676 6.77734 0.492676 4.31641 0.820801 3.16797C0.984863 2.51172 1.50439 1.99219 2.1333 1.82812C3.30908 1.5 7.98486 1.5 7.98486 1.5C7.98486 1.5 12.6333 1.5 13.8091 1.82812C14.438 1.99219 14.9575 2.51172 15.1216 3.16797ZM6.45361 8.99219L10.3364 6.77734L6.45361 4.5625V8.99219Z" fill="#B2B2B9"/>
</svg>
